HIERARCHY
ROOT hip
{
	OFFSET 0.000000 0.000000 0.000000 
	CHANNELS 6 Xposition Yposition Zposition Xrotation Zrotation Yrotation
	JOINT abdomen
	{
		OFFSET 0.000000 3.402643 0.000000 
		CHANNELS 3 Xrotation Zrotation Yrotation
		JOINT chest
		{
			OFFSET 0.000000 8.438565 -0.680529 
			CHANNELS 3 Xrotation Zrotation Yrotation
			JOINT neck
			{
				OFFSET 0.000000 10.207942 -0.272212 
				CHANNELS 3 Xrotation Zrotation Yrotation
				JOINT head
				{
					OFFSET 0.000000 3.130431 0.000000 
					CHANNELS 3 Xrotation Zrotation Yrotation
					End Site
					{
						OFFSET 0.000000 3.130435 0.000000 
					}
				}
			}
			JOINT lCollar
			{
				OFFSET 3.470700 6.669187 -0.816635 
				CHANNELS 3 Yrotation Zrotation Xrotation
				JOINT lShldr
				{
					OFFSET 3.198488 0.000000 0.000000 
					CHANNELS 3 Zrotation Yrotation Xrotation
					JOINT lForeArm
					{
						OFFSET 10.139888 0.000000 0.000000 
						CHANNELS 3 Yrotation Zrotation Xrotation
						JOINT lHand
						{
							OFFSET 8.370511 0.000000 0.000000 
							CHANNELS 3 Zrotation Yrotation Xrotation
							End Site
							{
								OFFSET 4.083176 0.000000 0.000000 
							}
						}
					}
				}
			}
			JOINT rCollar
			{
				OFFSET -3.470700 6.669187 -0.816635 
				CHANNELS 3 Yrotation Zrotation Xrotation
				JOINT rShldr
				{
					OFFSET -3.198488 0.000000 0.000000 
					CHANNELS 3 Zrotation Yrotation Xrotation
					JOINT rForeArm
					{
						OFFSET -10.139888 0.000000 0.000000 
						CHANNELS 3 Yrotation Zrotation Xrotation
						JOINT rHand
						{
							OFFSET -8.370511 0.000000 0.000000 
							CHANNELS 3 Zrotation Yrotation Xrotation
							End Site
							{
								OFFSET -4.083176 0.000000 0.000000 
							}
						}
					}
				}
			}
		}
	}
	JOINT lThigh
	{
		OFFSET 5.308129 -1.633274 1.361059 
		CHANNELS 3 Xrotation Zrotation Yrotation
		JOINT lShin
		{
			OFFSET -2.041588 -20.007561 0.000000 
			CHANNELS 3 Xrotation Zrotation Yrotation
			JOINT lFoot
			{
				OFFSET 0.000000 -19.190928 -1.224953 
				CHANNELS 3 Xrotation Yrotation Zrotation
				End Site
				{
					OFFSET 0.000000 -2.449906 4.627600 
				}
			}
		}
	}
	JOINT rThigh
	{
		OFFSET -5.308129 -1.633274 1.361059 
		CHANNELS 3 Xrotation Zrotation Yrotation
		JOINT rShin
		{
			OFFSET 2.041588 -20.007561 0.000000 
			CHANNELS 3 Xrotation Zrotation Yrotation
			JOINT rFoot
			{
				OFFSET 0.000000 -19.190928 -1.224953 
				CHANNELS 3 Xrotation Yrotation Zrotation
				End Site
				{
					OFFSET 0.000000 -2.449906 4.627600 
				}
			}
		}
	}
}
MOTION
Frames: 6
Frame Time: 0.033333
-1.043891 51.394665 0.150069 -1.748048 0.048805 7.820776 0.000000 0.000000 0.000000 -5.079253 -1.206184 1.435302 4.746504 1.392795 5.307331 -0.915384 2.215199 4.453146 -1.086369 10.437792 -3.912501 11.322849 -33.064831 -34.029476 -129.217834 2.955219 0.449587 18.251493 -14.577611 -6.112840 2.863248 -4.994517 -3.943989 2.056597 -24.621449 -13.232801 0.119574 0.306810 3.410184 -17.386641 -7.912100 -2.872436 7.834409 5.991847 2.666222 0.838532 -2.508766 0.258719 -6.664936 0.107208 -1.874485 8.779866 -2.673374 -4.863896 -1.936792 3.061316 -15.278619 -4.586815 -0.058586 1.290147 
-1.080132 51.405613 0.145577 -1.572266 0.000000 7.812501 0.000000 0.000000 0.000000 -5.128002 -1.157459 1.109702 4.593019 1.232731 5.091734 -0.894103 3.226735 4.099446 -1.457678 10.556711 -3.944824 8.990683 -31.907583 -30.702345 -128.023102 3.801646 7.984355 16.034527 -16.818087 -6.047773 1.069710 -6.883864 -4.081456 4.526880 -22.654310 -14.393550 0.127886 0.385094 4.358196 -17.440704 -8.347116 -2.813115 7.488702 6.073345 2.712273 1.138106 -2.550462 0.221421 -6.808039 0.095224 -1.698998 8.516290 -2.585608 -4.755113 -1.804383 3.034461 -15.395804 -4.671216 -0.062886 1.129504 
-1.079504 51.389000 0.154121 -1.748051 0.117133 7.584315 0.000000 0.000000 0.000000 -4.893403 -1.050844 0.636822 4.604158 0.849516 4.183334 -0.995903 3.620598 3.343773 -1.499600 9.369400 -3.779855 7.368692 -28.534027 -28.049412 -126.553436 4.221594 13.720289 10.971674 -22.152225 -5.589635 0.624568 -6.932636 -3.881073 4.674435 -21.871021 -14.610123 0.145598 0.410760 4.885917 -17.376966 -7.911370 -2.872050 7.932778 5.962667 2.680197 0.749384 -2.524294 0.547369 -6.634802 0.108751 -1.894991 8.628108 -2.752672 -4.911622 -1.580937 3.123000 -14.963431 -4.805943 -0.067760 1.467487 
-1.083783 51.373402 0.164315 -1.435547 -0.019525 6.748537 0.000000 0.000000 0.000000 -4.990640 -0.729646 0.503162 4.109307 0.520019 3.028542 -0.593374 3.489824 2.101802 -1.238568 7.787281 -3.904268 5.854038 -23.129154 -24.879791 -123.953987 3.962575 12.247104 10.272656 -21.514578 -5.378249 0.481567 -6.826391 -3.977405 4.547076 -21.257635 -14.401433 0.224637 0.548870 4.527931 -17.684566 -7.582025 -2.909824 7.882262 6.059509 2.773449 0.525543 -2.631855 1.128660 -6.663961 0.121310 -2.145867 8.232207 -2.763801 -4.792774 -1.568126 3.159863 -14.143521 -4.741560 -0.066961 1.361436 
-1.086176 51.400703 0.177454 -1.171876 -0.078109 5.411755 0.000000 0.000000 0.000000 -4.970855 -0.447529 0.478376 3.594661 0.654328 1.873521 -0.309650 2.247942 1.239616 -0.789568 6.452196 -3.920130 4.275183 -14.895632 -22.618830 -118.957405 2.879339 7.615905 13.016090 -18.425749 -5.674339 0.440748 -6.598910 -3.965362 4.215989 -20.558800 -13.925471 0.244492 0.859906 3.917608 -17.683882 -7.464444 -2.927677 7.916049 5.954844 2.797854 0.320838 -2.730628 2.539042 -6.680812 0.115157 -1.977827 7.828750 -2.869979 -4.756444 -1.522650 3.231384 -12.863129 -4.698828 -0.062884 1.182641 
-1.094355 51.409637 0.212273 -0.878911 -0.195290 3.958074 0.000000 0.000000 0.000000 -5.048845 0.145916 0.553515 3.087154 0.115326 1.221215 0.185593 2.743604 -0.044062 -0.251837 4.493487 -4.010488 3.478253 -6.652858 -21.882694 -110.467239 1.443224 2.401944 12.408556 -16.216345 -5.338747 0.304290 -7.758451 -4.068987 4.969870 -20.086323 -14.059554 0.252943 0.915741 4.435738 -17.590084 -7.418176 -2.932339 7.958280 5.966662 2.897257 0.203883 -2.837385 3.719727 -6.804711 0.117503 -1.827902 7.564140 -2.937845 -4.747638 -1.803067 3.404524 -11.530181 -4.476192 -0.045448 0.701614 
